<?xml version="1.0" encoding="UTF-8" standalone="no"?>
<svg
   xmlns:dc="http://purl.org/dc/elements/1.1/"
   xmlns:cc="http://creativecommons.org/ns#"
   xmlns:rdf="http://www.w3.org/1999/02/22-rdf-syntax-ns#"
   xmlns:svg="http://www.w3.org/2000/svg"
   xmlns="http://www.w3.org/2000/svg"
   xmlns:sodipodi="http://sodipodi.sourceforge.net/DTD/sodipodi-0.dtd"
   xmlns:inkscape="http://www.inkscape.org/namespaces/inkscape"
   width="24"
   height="24"
   fill-rule="evenodd"
   clip-rule="evenodd"
   version="1.1"
   id="svg865"
   sodipodi:docname="Discord.svg"
   inkscape:version="0.92.3 (2405546, 2018-03-11)">
  <metadata
     id="metadata871">
    <rdf:RDF>
      <cc:Work
         rdf:about="">
        <dc:format>image/svg+xml</dc:format>
        <dc:type
           rdf:resource="http://purl.org/dc/dcmitype/StillImage" />
      </cc:Work>
    </rdf:RDF>
  </metadata>
  <defs
     id="defs869" />
  <sodipodi:namedview
     pagecolor="#ffffff"
     bordercolor="#666666"
     borderopacity="1"
     objecttolerance="10"
     gridtolerance="10"
     guidetolerance="10"
     inkscape:pageopacity="0"
     inkscape:pageshadow="2"
     inkscape:window-width="1853"
     inkscape:window-height="1025"
     id="namedview867"
     showgrid="false"
     inkscape:zoom="17.583333"
     inkscape:cx="18.483353"
     inkscape:cy="10.807312"
     inkscape:window-x="3907"
     inkscape:window-y="1107"
     inkscape:window-maximized="1"
     inkscape:current-layer="svg865" />
  <path
     d="M12 0c-6.626 0-12 5.372-12 12 0 6.627 5.374 12 12 12 6.627 0 12-5.373 12-12 0-6.628-5.373-12-12-12zm3.248 18.348l-.371-1.295.896.833.847.784 1.505 1.33v-12.558c0-.798-.644-1.442-1.435-1.442h-9.38c-.791 0-1.435.644-1.435 1.442v9.464c0 .798.644 1.442 1.435 1.442h7.938zm-1.26-3.206l-.462-.567c.917-.259 1.267-.833 1.267-.833-.287.189-.56.322-.805.413-.35.147-.686.245-1.015.301-.672.126-1.288.091-1.813-.007-.399-.077-.742-.189-1.029-.301-.161-.063-.336-.14-.511-.238l-.028-.016-.007-.003-.028-.016-.028-.021-.196-.119s.336.56 1.225.826l-.469.581c-1.547-.049-2.135-1.064-2.135-1.064 0-2.254 1.008-4.081 1.008-4.081 1.008-.756 1.967-.735 1.967-.735l.07.084c-1.26.364-1.841.917-1.841.917l.413-.203c.749-.329 1.344-.42 1.589-.441l.119-.014c.427-.056.91-.07 1.414-.014.665.077 1.379.273 2.107.672 0 0-.553-.525-1.743-.889l.098-.112s.959-.021 1.967.735c0 0 1.008 1.827 1.008 4.081 0 0-.573.977-2.142 1.064zm-.7-3.269c-.399 0-.714.35-.714.777 0 .427.322.777.714.777.399 0 .714-.35.714-.777 0-.427-.315-.777-.714-.777zm-2.555 0c-.399 0-.714.35-.714.777 0 .427.322.777.714.777.399 0 .714-.35.714-.777.007-.427-.315-.777-.714-.777z"
     id="path863"
     style="fill:#6888df;fill-opacity:1" />
</svg>
