<svg xmlns="http://www.w3.org/2000/svg" viewBox="0 0 86.3 80.44"><defs><style>.cls-1{fill:#ff3369;}.cls-1,.cls-10,.cls-2,.cls-3,.cls-4,.cls-5,.cls-6,.cls-7,.cls-8,.cls-9{fill-rule:evenodd;}.cls-2{fill:#ffa033;}.cls-3{fill:#333b54;}.cls-4{fill:#33a7ff;}.cls-5{fill:#444b66;}.cls-6{fill:#3fd534;}.cls-7{fill:#666;}.cls-8{fill:#b2b2b2;}.cls-10{fill:#fff;}</style></defs><g id="Layer_2" data-name="Layer 2"><g id="Layer_1-2" data-name="Layer 1"><path class="cls-1" d="M43.63,35.63a14.28,14.28,0,0,0-.4,2c0,.2-.11.68.17.73s.62-.67.73-.9a5.79,5.79,0,0,0,.53-2.59c0-.2,0-.84-.29-.76s-.37.75-.4,1A.51.51,0,0,1,43.63,35.63Z"/><path class="cls-2" d="M36.38,39.53a13.38,13.38,0,0,0-.4,2.06c0,.2-.11.68.17.73s.62-.68.73-.91a5.75,5.75,0,0,0,.53-2.58c0-.2,0-.85-.29-.77s-.37.75-.4,1A.51.51,0,0,1,36.38,39.53Z"/><path class="cls-1" d="M12.2,43.17c.64,1.18,1.17,2.41,1.85,3.57.32.53-.31,1.12-.73.86l-1.88,1.24L12.53,51l2.93-1.42a.48.48,0,0,1,.68.23.64.64,0,0,1,.13.15L18.22,53l2-1-1.79-3.29a.5.5,0,0,1,0-.83L21,46.33c-.26-.86-.44-1.75-.69-2.61l-3,1.53c.13.56-.78.87-1.09.28-.62-1.15-1.23-2.3-1.84-3.45Z"/><path class="cls-3" d="M62.6,38.2A9.19,9.19,0,0,0,72,29.31a12.38,12.38,0,0,0-4.27-10.46,10.51,10.51,0,0,0-9.81-2,10.1,10.1,0,0,0-5.71,4.63,10.45,10.45,0,0,0-.35,8.33c1.59,4.63,5.73,8.36,10.78,8.4Zm2.2-14.85h0a2.42,2.42,0,0,1,3.53-.59,2.81,2.81,0,0,1,.53,3.74,2.58,2.58,0,0,1-3.79.84,2.83,2.83,0,0,1-.36-3.68.64.64,0,0,1,.09-.31Zm-3.1,7.89h0a2.42,2.42,0,0,1,3.53-.59,2.81,2.81,0,0,1,.53,3.74,2.59,2.59,0,0,1-3.79.84,2.83,2.83,0,0,1-.36-3.68.61.61,0,0,1,.09-.31ZM58.18,19.75h0a2.42,2.42,0,0,1,3.52-.6,2.82,2.82,0,0,1,.53,3.75,2.57,2.57,0,0,1-3.78.83,2.81,2.81,0,0,1-.36-3.67.53.53,0,0,1,.09-.31ZM55.5,27.64h0A2.41,2.41,0,0,1,59,27.05a2.82,2.82,0,0,1,.54,3.74,2.58,2.58,0,0,1-3.79.84A2.83,2.83,0,0,1,55.41,28,.64.64,0,0,1,55.5,27.64Z"/><path class="cls-2" d="M26.7,34.59a5.07,5.07,0,0,0,1.2,1.63,2.14,2.14,0,0,0,2,.2,33.31,33.31,0,0,0,3.8-1.5A73.8,73.8,0,0,0,41.42,31a15.42,15.42,0,0,0,3.41-2.26,2.1,2.1,0,0,0,.68-1.93A7.26,7.26,0,0,0,44.63,25c-1.41-2.5-2.81-5-4.22-7.52-6.36,2.45-12.57,5.27-18.81,8Z"/><path class="cls-4" d="M65.79,24.07a1.76,1.76,0,0,0,0,2.43c.75.61,1.74,0,2.15-.71a1.66,1.66,0,0,0-.41-2.19,1.28,1.28,0,0,0-1.67.17A.53.53,0,0,1,65.79,24.07Z"/><path class="cls-5" d="M20.63,59.88a9.88,9.88,0,0,0,5.6-3.22,11,11,0,0,0,2.4-6.94c.18-12.17-13.23-17.56-20.2-9C5.27,44.56,6,50.12,8.48,54.14s7.32,6.69,12.15,5.74ZM11.21,42.41h0l3.16-1.6a.57.57,0,0,1,.74.3l1.67,3.14,3.64-1.85a.56.56,0,0,1,.74.3c.42,1.2.61,2.46,1,3.66a.14.14,0,0,0,0,.06.47.47,0,0,1-.2.6l-2.38,1.51,1.73,3.16a.48.48,0,0,1,0,.48.57.57,0,0,1-.29.72l-2.85,1.35a.56.56,0,0,1-.66-.18l-2.09-3.27-2.7,1.31a.61.61,0,0,1-1-.11l-1.61-3.12a.57.57,0,0,1,.18-.67l2.36-1.55c-.59-1.12-1.1-2.29-1.74-3.38a.59.59,0,0,1-.09-.35A.56.56,0,0,1,11.21,42.41Z"/><path class="cls-2" d="M59.17,20.46a1.75,1.75,0,0,0,0,2.44c.74.6,1.74,0,2.14-.71a1.67,1.67,0,0,0-.41-2.2,1.27,1.27,0,0,0-1.66.18A.55.55,0,0,1,59.17,20.46Z"/><path class="cls-1" d="M56.49,28.36a1.75,1.75,0,0,0,0,2.43c.74.61,1.74,0,2.14-.71a1.65,1.65,0,0,0-.41-2.19,1.27,1.27,0,0,0-1.66.17A.61.61,0,0,1,56.49,28.36Z"/><path class="cls-6" d="M62.69,32a1.76,1.76,0,0,0,0,2.43c.75.61,1.74,0,2.15-.71a1.66,1.66,0,0,0-.41-2.19,1.25,1.25,0,0,0-1.66.17A.63.63,0,0,1,62.69,32Z"/><path class="cls-3" d="M35.91,61.73c-.36-1-.72-2.07-1.09-3.1,0,.77,0,1.55,0,2.32a.59.59,0,0,1,.28.3c.24.61.48,1.23.73,1.84A10.88,10.88,0,0,1,36.07,62,.5.5,0,0,1,35.91,61.73Z"/><path class="cls-7" d="M35.56,65.45a1,1,0,0,1-.09-.15c-.24-.61-.49-1.23-.73-1.85a17,17,0,0,1-.21,1.9,9.43,9.43,0,0,1-2.12,4.7,9.08,9.08,0,0,1-3.85,2.48,12.76,12.76,0,0,1-9.76-.86c-3.53-1.74-6.37-4.58-9-7.41A46.09,46.09,0,0,1,3.2,55.71a31.74,31.74,0,0,0,3,7.17A50.69,50.69,0,0,0,15.73,74.1c3.35,3.07,7.53,5.72,12.26,5.12a8.69,8.69,0,0,0,5.2-2.41,9.6,9.6,0,0,0,2.25-6.24c.1-1.7,0-3.41.12-5.12ZM22.43,77.22h0a17.1,17.1,0,0,1-5.74-3.66c-.51-.5.18-1.4.7-.89a16.06,16.06,0,0,0,5.49,3.51c.68.27.23,1.3-.45,1Zm1.85.13h0a.57.57,0,0,1,.16-1.12A.57.57,0,0,1,24.28,77.35Z"/><path class="cls-7" d="M61.93,43.08c-.72-.21-1.44-.4-2.17-.54a14.66,14.66,0,0,0-6.29.11,37.67,37.67,0,0,0-5.93,2.11c-1.59.68-3.18,1.37-4.71,2.18-3,1.59-5.9,3.76-7.17,7a10.4,10.4,0,0,0-.57,2c.51,1.46,1,2.93,1.54,4.4a11.61,11.61,0,0,1,1.81-2.86c2.85-3.28,7-5.06,11-6.7a30.17,30.17,0,0,1,7.22-2.28,16.86,16.86,0,0,1,6.85.59Z"/><path class="cls-8" d="M1.78,49.5a.38.38,0,0,1,.05.19,27.87,27.87,0,0,0,4.82,9.18,57.26,57.26,0,0,0,7.69,8.33c2.69,2.39,5.9,4.5,9.58,4.79,2.95.22,6.2-.71,8-3.16,2.24-3,1.62-7.15,1.79-10.66A14.24,14.24,0,0,1,34.84,53a12.34,12.34,0,0,1,2.78-3.78,28.37,28.37,0,0,1,8.55-5.08c3.55-1.53,7.26-3.14,11.21-3,4.24.15,8.1,2.17,12.09,3.39,3.59,1.09,7.81,1.56,11-.78s3.19-6.62,2.29-10.21c-.08-.33-.17-.67-.27-1v0a.74.74,0,0,1,0-.14A26.7,26.7,0,0,0,49.1,14.46q-3,.93-5.86,2-.89.32-1.77.66l2.47,4.41L45.35,24a13.17,13.17,0,0,1,1.2,2.33A3.4,3.4,0,0,1,45.14,30a27.51,27.51,0,0,1-3.87,2.41,76.29,76.29,0,0,1-8.48,4.13c-1.31.54-2.89,1.39-4.35,1.15s-2.18-1.58-2.84-2.75q-2.52-4.47-5-8.94c-3.55,1.55-7.22,2.9-10.63,4.74-3.13,1.68-6,4-7.5,7.28a17,17,0,0,0-.82,10.85c0,.22.1.43.16.65Zm49.9-29.39h0a11.29,11.29,0,0,1,5.77-4.31,11.75,11.75,0,0,1,12.12,3.29A13.59,13.59,0,0,1,72.63,31.9a10.06,10.06,0,0,1-4.71,6,10.83,10.83,0,0,1-7.46,1.17C55,38,51.13,33.3,50.19,28a10.64,10.64,0,0,1,1.49-7.86Zm-9.51,17h0a17.7,17.7,0,0,1,.62-2.61.48.48,0,0,1,.23-.3,1.64,1.64,0,0,1,.73-1,1.25,1.25,0,0,1,1.61.18,2.93,2.93,0,0,1,.42,2,7.24,7.24,0,0,1-.53,2.33,2.79,2.79,0,0,1-1.34,1.66,1.28,1.28,0,0,1-1.6-.49,2.74,2.74,0,0,1-.14-1.83ZM34.92,41h0a18.14,18.14,0,0,1,.62-2.62.44.44,0,0,1,.23-.29,1.69,1.69,0,0,1,.73-1,1.26,1.26,0,0,1,1.61.19,2.89,2.89,0,0,1,.42,2A7.12,7.12,0,0,1,38,41.67a2.81,2.81,0,0,1-1.34,1.67,1.29,1.29,0,0,1-1.6-.5A2.71,2.71,0,0,1,34.92,41ZM8.8,38.68h0c10.36-9.36,22.93,2.17,20.71,13.48a11.07,11.07,0,0,1-3.84,6.6,11.21,11.21,0,0,1-6.79,2.44A13.61,13.61,0,0,1,6.58,53,14.16,14.16,0,0,1,5.3,45,10.82,10.82,0,0,1,8.8,38.68Z"/><path class="cls-3" d="M64.39,43.91l-1.2-.43c.51,2,1,4,1.52,6,.43.13.85.28,1.28.43C65.46,47.92,64.92,45.91,64.39,43.91Z"/><path class="cls-7" d="M84.33,39.51a7.94,7.94,0,0,1-1.82,3.9,9.1,9.1,0,0,1-4.25,2.64C74.2,47.26,70,46,66.19,44.57l-.52-.2q.75,2.81,1.49,5.6a.5.5,0,0,1,0,.37c4.14,1.52,8.53,3.3,12.85,1.86a7.33,7.33,0,0,0,4.71-4.28c.83-2.23.48-4.68,0-6.93l-.33-1.48Zm-8.21,8.88h0a.57.57,0,0,1,.15-1.12.57.57,0,0,1-.15,1.12Zm8.24-4.27h0a9.29,9.29,0,0,1-5.9,4.35c-.7.17-.84-.95-.14-1.12a8,8,0,0,0,5-3.68C83.69,43.05,84.73,43.49,84.36,44.12Z"/><path class="cls-9" d="M22.88,76.18a16.06,16.06,0,0,1-5.49-3.51c-.52-.51-1.21.39-.7.89a17.1,17.1,0,0,0,5.74,3.66C23.11,77.48,23.56,76.45,22.88,76.18Z"/><path class="cls-9" d="M24.44,76.23a.57.57,0,0,0-.16,1.12A.57.57,0,0,0,24.44,76.23Z"/><path class="cls-9" d="M29.54,21.29s-.67-1.18-.4-1.55,3-1.71,3.61-1.52a3.87,3.87,0,0,1,1.37,1.21Z"/><path class="cls-9" d="M85.32,38.82c-.39-1.71-.79-3.42-1.25-5.12-.09-.33-.18-.67-.29-1a27.69,27.69,0,0,0-2-5.07,28.66,28.66,0,0,0-6.29-8.29,28,28,0,0,0-21.2-7,27.65,27.65,0,0,0-5.63,1.11c-2.69.84-5.34,1.78-8,2.78a.64.64,0,0,0-.62.24c-5.17,2-10.26,4.21-15.33,6.45C20.88,24.61,17,26.27,13.09,28c-3.31,1.45-6.64,3.14-9.15,5.81C-.15,38.12-.73,44.19.72,49.73a.57.57,0,0,0,0,.13A25.84,25.84,0,0,0,1.85,55a42.82,42.82,0,0,0,1.78,5.26c2,4.59,5.24,8.48,8.68,12.06s7.29,7.15,12.27,8c3.91.63,8.43-.61,10.55-4.19,2.63-4.44.56-9.85,2.23-14.54,1.51-4.25,5.7-6.66,9.59-8.44a56.91,56.91,0,0,1,7-2.81A15.51,15.51,0,0,1,62.2,50c5.35,1.23,10.4,4.51,16.09,3.77a9.85,9.85,0,0,0,5.87-2.84,9,9,0,0,0,2.12-6.82,31.28,31.28,0,0,0-1-5.25ZM40.41,17.51h0L44.63,25a7.26,7.26,0,0,1,.88,1.79,2.1,2.1,0,0,1-.68,1.93A15.42,15.42,0,0,1,41.42,31a73.8,73.8,0,0,1-7.74,3.91,33.31,33.31,0,0,1-3.8,1.5,2.14,2.14,0,0,1-2-.2,5.07,5.07,0,0,1-1.2-1.63l-5.1-9.06c6.24-2.75,12.45-5.57,18.81-8ZM2.44,38h0c1.5-3.3,4.37-5.6,7.5-7.28C13.35,28.88,17,27.53,20.57,26q2.5,4.47,5,8.94c.66,1.17,1.38,2.5,2.84,2.75s3-.61,4.35-1.15a76.29,76.29,0,0,0,8.48-4.13A27.51,27.51,0,0,0,45.14,30a3.4,3.4,0,0,0,1.41-3.63A13.17,13.17,0,0,0,45.35,24l-1.41-2.5-2.47-4.41q.89-.34,1.77-.66,2.91-1.06,5.86-2A26.7,26.7,0,0,1,82.47,32.35a.74.74,0,0,0,0,.14v0c.1.33.19.67.27,1,.9,3.59,1,7.82-2.29,10.21s-7.44,1.87-11,.78c-4-1.22-7.85-3.24-12.09-3.39-4-.13-7.66,1.48-11.21,3a28.37,28.37,0,0,0-8.55,5.08A12.34,12.34,0,0,0,34.84,53a14.24,14.24,0,0,0-1.1,5.19c-.17,3.51.45,7.65-1.79,10.66-1.83,2.45-5.08,3.38-8,3.16-3.68-.29-6.89-2.4-9.58-4.79a57.26,57.26,0,0,1-7.69-8.33,27.87,27.87,0,0,1-4.82-9.18.38.38,0,0,0-.05-.19c-.06-.22-.11-.43-.16-.65A17,17,0,0,1,2.44,38ZM64.71,49.5h0c-.5-2-1-4-1.52-6l1.2.43c.53,2,1.07,4,1.6,6-.43-.15-.85-.3-1.28-.43ZM35.81,63.09h0c-.25-.61-.49-1.23-.73-1.84a.59.59,0,0,0-.28-.3c0-.77,0-1.55,0-2.32.37,1,.73,2.07,1.09,3.1a.5.5,0,0,0,.16.23,10.88,10.88,0,0,0-.26,1.13ZM33.19,76.81h0A8.69,8.69,0,0,1,28,79.22c-4.73.6-8.91-2-12.26-5.12A50.69,50.69,0,0,1,6.24,62.88a31.74,31.74,0,0,1-3-7.17,46.09,46.09,0,0,0,6.57,8.55c2.66,2.83,5.5,5.67,9,7.41a12.76,12.76,0,0,0,9.76.86,9.08,9.08,0,0,0,3.85-2.48,9.43,9.43,0,0,0,2.12-4.7,17,17,0,0,0,.21-1.9c.24.62.49,1.24.73,1.85a1,1,0,0,0,.09.15c-.08,1.71,0,3.42-.12,5.12a9.6,9.6,0,0,1-2.25,6.24ZM56.61,48.54h0a30.17,30.17,0,0,0-7.22,2.28c-3.92,1.64-8.1,3.42-11,6.7a11.61,11.61,0,0,0-1.81,2.86c-.51-1.47-1-2.94-1.54-4.4a10.4,10.4,0,0,1,.57-2c1.27-3.25,4.19-5.42,7.17-7,1.53-.81,3.12-1.5,4.71-2.18a37.67,37.67,0,0,1,5.93-2.11,14.66,14.66,0,0,1,6.29-.11c.73.14,1.45.33,2.17.54l1.53,6.05a16.86,16.86,0,0,0-6.85-.59Zm28.08-.62h0A7.33,7.33,0,0,1,80,52.2c-4.32,1.44-8.71-.34-12.85-1.86a.5.5,0,0,0,0-.37q-.73-2.79-1.49-5.6l.52.2c3.83,1.39,8,2.69,12.07,1.48a9.1,9.1,0,0,0,4.25-2.64,7.94,7.94,0,0,0,1.82-3.9L84.66,41C85.17,43.24,85.52,45.69,84.69,47.92Z"/><path class="cls-9" d="M83.33,43.67a8,8,0,0,1-5,3.68c-.7.17-.56,1.29.14,1.12a9.29,9.29,0,0,0,5.9-4.35C84.73,43.49,83.69,43.05,83.33,43.67Z"/><path class="cls-9" d="M76.27,47.27a.57.57,0,0,0-.15,1.12A.57.57,0,0,0,76.27,47.27Z"/><path class="cls-9" d="M11,43.27c.64,1.09,1.15,2.26,1.74,3.38L10.36,48.2a.57.57,0,0,0-.18.67L11.79,52a.61.61,0,0,0,1,.11l2.7-1.31,2.09,3.27a.56.56,0,0,0,.66.18l2.85-1.35a.57.57,0,0,0,.29-.72.48.48,0,0,0,0-.48l-1.73-3.16L22,47a.47.47,0,0,0,.2-.6.14.14,0,0,1,0-.06c-.42-1.2-.61-2.46-1-3.66a.56.56,0,0,0-.74-.3l-3.64,1.85-1.67-3.14a.57.57,0,0,0-.74-.3l-3.16,1.6a.56.56,0,0,0-.32.51.59.59,0,0,0,.09.35Zm5.21,2.26h0c.31.59,1.22.28,1.09-.28l3-1.53c.25.86.43,1.75.69,2.61l-2.48,1.58a.5.5,0,0,0,0,.83L20.26,52l-2,1-1.95-3.07a.64.64,0,0,0-.13-.15.48.48,0,0,0-.68-.23L12.53,51l-1.09-2.13,1.88-1.24c.42.26,1-.33.73-.86-.68-1.16-1.21-2.39-1.85-3.57l2.15-1.09C15,43.23,15.57,44.38,16.19,45.53Z"/><path class="cls-9" d="M18.88,61.2a11.21,11.21,0,0,0,6.79-2.44,11.07,11.07,0,0,0,3.84-6.6C31.77,40.63,19,29.45,8.8,38.68A10.82,10.82,0,0,0,5.3,45a14.16,14.16,0,0,0,1.28,8,13.61,13.61,0,0,0,12.3,8.23ZM8.43,40.69h0c6.91-8.47,20.38-3.21,20.2,9a11,11,0,0,1-2.4,6.94,9.88,9.88,0,0,1-5.6,3.22c-4.83.95-9.6-1.68-12.15-5.74S5.27,44.56,8.43,40.69Z"/><path class="cls-9" d="M60.46,39.1a10.83,10.83,0,0,0,7.46-1.17,10.06,10.06,0,0,0,4.71-6,13.59,13.59,0,0,0-3.06-12.81A11.75,11.75,0,0,0,57.45,15.8a11.29,11.29,0,0,0-5.77,4.31A10.64,10.64,0,0,0,50.19,28C51.13,33.3,55,38,60.46,39.1ZM52.17,21.47h0a10.1,10.1,0,0,1,5.71-4.63,10.51,10.51,0,0,1,9.81,2A12.38,12.38,0,0,1,72,29.31,9.19,9.19,0,0,1,62.6,38.2c-5.05,0-9.19-3.77-10.78-8.4A10.45,10.45,0,0,1,52.17,21.47Z"/><path class="cls-9" d="M58.45,23.73a2.57,2.57,0,0,0,3.78-.83,2.82,2.82,0,0,0-.53-3.75,2.42,2.42,0,0,0-3.52.6.53.53,0,0,0-.09.31,2.81,2.81,0,0,0,.36,3.67ZM60.94,20h0a1.67,1.67,0,0,1,.41,2.2c-.4.71-1.4,1.31-2.14.71a1.75,1.75,0,0,1,0-2.44.55.55,0,0,0,.11-.29A1.27,1.27,0,0,1,60.94,20Z"/><path class="cls-9" d="M62,35.23a2.59,2.59,0,0,0,3.79-.84,2.81,2.81,0,0,0-.53-3.74,2.42,2.42,0,0,0-3.53.59.61.61,0,0,0-.09.31A2.83,2.83,0,0,0,62,35.23Zm2.5-3.74h0a1.66,1.66,0,0,1,.41,2.19c-.41.71-1.4,1.32-2.15.71a1.76,1.76,0,0,1,0-2.43.63.63,0,0,0,.12-.3A1.25,1.25,0,0,1,64.47,31.49Z"/><path class="cls-9" d="M55.77,31.63a2.58,2.58,0,0,0,3.79-.84A2.82,2.82,0,0,0,59,27.05a2.41,2.41,0,0,0-3.52.59.64.64,0,0,0-.09.31,2.83,2.83,0,0,0,.36,3.68Zm2.49-3.74h0a1.65,1.65,0,0,1,.41,2.19c-.4.72-1.4,1.32-2.14.71a1.75,1.75,0,0,1,0-2.43.61.61,0,0,0,.11-.3A1.27,1.27,0,0,1,58.26,27.89Z"/><path class="cls-9" d="M65.07,27.34a2.58,2.58,0,0,0,3.79-.84,2.81,2.81,0,0,0-.53-3.74,2.42,2.42,0,0,0-3.53.59.64.64,0,0,0-.09.31,2.83,2.83,0,0,0,.36,3.68Zm2.5-3.74h0A1.66,1.66,0,0,1,68,25.79c-.41.72-1.4,1.32-2.15.71a1.76,1.76,0,0,1,0-2.43.53.53,0,0,0,.11-.3A1.28,1.28,0,0,1,67.57,23.6Z"/><path class="cls-9" d="M36.66,43.34A2.81,2.81,0,0,0,38,41.67a7.12,7.12,0,0,0,.53-2.33,2.89,2.89,0,0,0-.42-2,1.26,1.26,0,0,0-1.61-.19,1.69,1.69,0,0,0-.73,1,.44.44,0,0,0-.23.29A18.14,18.14,0,0,0,34.92,41a2.71,2.71,0,0,0,.14,1.82,1.29,1.29,0,0,0,1.6.5Zm.46-5.28h0c.31-.08.28.57.29.77a5.75,5.75,0,0,1-.53,2.58c-.11.23-.39,1-.73.91s-.19-.53-.17-.73a13.38,13.38,0,0,1,.4-2.06.51.51,0,0,0,.34-.44C36.75,38.81,36.77,38.15,37.12,38.06Z"/><path class="cls-9" d="M43.91,39.43a2.79,2.79,0,0,0,1.34-1.66,7.24,7.24,0,0,0,.53-2.33,2.93,2.93,0,0,0-.42-2,1.25,1.25,0,0,0-1.61-.18,1.64,1.64,0,0,0-.73,1,.48.48,0,0,0-.23.3,17.7,17.7,0,0,0-.62,2.61,2.74,2.74,0,0,0,.14,1.83,1.28,1.28,0,0,0,1.6.49Zm.46-5.27h0c.31-.08.28.56.29.76a5.79,5.79,0,0,1-.53,2.59c-.11.23-.39,1-.73.9s-.19-.53-.17-.73a14.28,14.28,0,0,1,.4-2,.51.51,0,0,0,.34-.44C44,34.91,44,34.24,44.37,34.16Z"/><path class="cls-10" d="M18.46,28.45A15.24,15.24,0,0,0,12.4,31.5c-.62.52.14,1.53.77,1a13.63,13.63,0,0,1,5.45-2.8C19.4,29.51,19.25,28.26,18.46,28.45Z"/><path class="cls-10" d="M10.74,34.16a.64.64,0,0,0,.17-1.26A.64.64,0,0,0,10.74,34.16Z"/><path class="cls-10" d="M25.57,48.38a6,6,0,0,1-.79,4.9c-.45.67.55,1.46,1,.78a7.32,7.32,0,0,0,.95-6.17C26.51,47.11,25.35,47.6,25.57,48.38Z"/><path class="cls-10" d="M23.94,55.7a.64.64,0,0,0,.17-1.26A.64.64,0,0,0,23.94,55.7Z"/><path class="cls-10" d="M54.5,20.25A5.86,5.86,0,0,0,52.33,26c.16.79,1.42.64,1.25-.16a4.61,4.61,0,0,1,1.68-4.61C55.91,20.76,55.14,19.75,54.5,20.25Z"/><path class="cls-10" d="M53,28.7a.63.63,0,0,0,.18-1.25A.63.63,0,0,0,53,28.7Z"/><path class="cls-10" d="M80.41,36.93a6.11,6.11,0,0,1-3.92,5.38c-.76.28-.28,1.45.48,1.16a7.36,7.36,0,0,0,4.7-6.37C81.71,36.29,80.46,36.11,80.41,36.93Z"/><path class="cls-10" d="M74.31,43.05a.63.63,0,0,0,.18-1.25A.63.63,0,0,0,74.31,43.05Z"/><path class="cls-10" d="M20.86,69.25a5,5,0,0,0,4.91.35c.73-.36.25-1.53-.48-1.17a3.66,3.66,0,0,1-3.65-.17C21,67.81,20.17,68.8,20.86,69.25Z"/><path class="cls-10" d="M27.94,68.43a.63.63,0,0,0,.17-1.25A.63.63,0,0,0,27.94,68.43Z"/><path class="cls-9" d="M30.94,20.21c-3.68-4.59-2.79-11.37.5-15.93A16.36,16.36,0,0,1,34.93.77C34.5.43,34.14.18,33.86,0a16.88,16.88,0,0,0-3.21,3.22c-3.79,5-4.83,12.62-.72,17.76C30.44,21.61,31.45,20.85,30.94,20.21Z"/></g></g></svg>