<?xml version="1.0" encoding="UTF-8" standalone="no"?>
<svg
   xmlns:dc="http://purl.org/dc/elements/1.1/"
   xmlns:cc="http://creativecommons.org/ns#"
   xmlns:rdf="http://www.w3.org/1999/02/22-rdf-syntax-ns#"
   xmlns:svg="http://www.w3.org/2000/svg"
   xmlns="http://www.w3.org/2000/svg"
   xmlns:sodipodi="http://sodipodi.sourceforge.net/DTD/sodipodi-0.dtd"
   xmlns:inkscape="http://www.inkscape.org/namespaces/inkscape"
   width="24"
   height="24"
   viewBox="0 0 24 24"
   version="1.1"
   id="svg867"
   sodipodi:docname="Reddit.svg"
   inkscape:version="0.92.3 (2405546, 2018-03-11)">
  <metadata
     id="metadata873">
    <rdf:RDF>
      <cc:Work
         rdf:about="">
        <dc:format>image/svg+xml</dc:format>
        <dc:type
           rdf:resource="http://purl.org/dc/dcmitype/StillImage" />
      </cc:Work>
    </rdf:RDF>
  </metadata>
  <defs
     id="defs871" />
  <sodipodi:namedview
     pagecolor="#ffffff"
     bordercolor="#666666"
     borderopacity="1"
     objecttolerance="10"
     gridtolerance="10"
     guidetolerance="10"
     inkscape:pageopacity="0"
     inkscape:pageshadow="2"
     inkscape:window-width="756"
     inkscape:window-height="480"
     id="namedview869"
     showgrid="false"
     inkscape:zoom="9.8333333"
     inkscape:cx="12"
     inkscape:cy="12"
     inkscape:window-x="0"
     inkscape:window-y="0"
     inkscape:window-maximized="0"
     inkscape:current-layer="svg867" />
  <path
     d="M14.238 15.348c.085.084.085.221 0 .306-.465.462-1.194.687-2.231.687l-.008-.002-.008.002c-1.036 0-1.766-.225-2.231-.688-.085-.084-.085-.221 0-.305.084-.084.222-.084.307 0 .379.377 1.008.561 1.924.561l.008.002.008-.002c.915 0 1.544-.184 1.924-.561.085-.084.223-.084.307 0zm-3.44-2.418c0-.507-.414-.919-.922-.919-.509 0-.923.412-.923.919 0 .506.414.918.923.918.508.001.922-.411.922-.918zm13.202-.93c0 6.627-5.373 12-12 12s-12-5.373-12-12 5.373-12 12-12 12 5.373 12 12zm-5-.129c0-.851-.695-1.543-1.55-1.543-.417 0-.795.167-1.074.435-1.056-.695-2.485-1.137-4.066-1.194l.865-2.724 2.343.549-.003.034c0 .696.569 1.262 1.268 1.262.699 0 1.267-.566 1.267-1.262s-.568-1.262-1.267-1.262c-.537 0-.994.335-1.179.804l-2.525-.592c-.11-.027-.223.037-.257.145l-.965 3.038c-1.656.02-3.155.466-4.258 1.181-.277-.255-.644-.415-1.05-.415-.854.001-1.549.693-1.549 1.544 0 .566.311 1.056.768 1.325-.03.164-.05.331-.05.5 0 2.281 2.805 4.137 6.253 4.137s6.253-1.856 6.253-4.137c0-.16-.017-.317-.044-.472.486-.261.82-.766.82-1.353zm-4.872.141c-.509 0-.922.412-.922.919 0 .506.414.918.922.918s.922-.412.922-.918c0-.507-.413-.919-.922-.919z"
     id="path865"
     style="fill:#6888df;fill-opacity:0.88205129" />
</svg>
