<?xml version="1.0" encoding="UTF-8" standalone="no"?>
<svg
   xmlns:dc="http://purl.org/dc/elements/1.1/"
   xmlns:cc="http://creativecommons.org/ns#"
   xmlns:rdf="http://www.w3.org/1999/02/22-rdf-syntax-ns#"
   xmlns:svg="http://www.w3.org/2000/svg"
   xmlns="http://www.w3.org/2000/svg"
   xmlns:sodipodi="http://sodipodi.sourceforge.net/DTD/sodipodi-0.dtd"
   xmlns:inkscape="http://www.inkscape.org/namespaces/inkscape"
   width="127.001"
   height="127.001"
   viewBox="0 0 127.001 127.001"
   version="1.1"
   id="svg23"
   sodipodi:docname="Steam.svg"
   inkscape:version="0.92.3 (2405546, 2018-03-11)">
  <metadata
     id="metadata27">
    <rdf:RDF>
      <cc:Work
         rdf:about="">
        <dc:format>image/svg+xml</dc:format>
        <dc:type
           rdf:resource="http://purl.org/dc/dcmitype/StillImage" />
        <dc:title />
      </cc:Work>
    </rdf:RDF>
  </metadata>
  <sodipodi:namedview
     pagecolor="#ffffff"
     bordercolor="#666666"
     borderopacity="1"
     objecttolerance="10"
     gridtolerance="10"
     guidetolerance="10"
     inkscape:pageopacity="0"
     inkscape:pageshadow="2"
     inkscape:window-width="1853"
     inkscape:window-height="1025"
     id="namedview25"
     showgrid="false"
     inkscape:zoom="5.6568543"
     inkscape:cx="81.804108"
     inkscape:cy="21.422843"
     inkscape:window-x="3907"
     inkscape:window-y="1107"
     inkscape:window-maximized="1"
     inkscape:current-layer="layer2" />
  <defs
     id="defs13">
    <filter
       id="a"
       x="0"
       y="0"
       width="127.001"
       height="127.001"
       filterUnits="userSpaceOnUse">
      <feOffset
         dy="3"
         input="SourceAlpha"
         id="feOffset2" />
      <feGaussianBlur
         stdDeviation="3"
         result="b"
         id="feGaussianBlur4" />
      <feFlood
         flood-opacity="0.161"
         id="feFlood6" />
      <feComposite
         operator="in"
         in2="b"
         id="feComposite8"
         result="result1" />
      <feComposite
         in="SourceGraphic"
         in2="result1"
         id="feComposite10" />
    </filter>
  </defs>
  <g
     inkscape:groupmode="layer"
     id="layer2"
     inkscape:label="Layer 1"
     style="opacity:1">
    <path
       style="fill:#999999;stroke-width:0.05454423"
       d="M 60.531266,111.95065 C 54.40422,111.7979 48.124346,110.52778 42.355938,108.27464 37.279893,106.29193 32.297853,103.41179 28.104519,100.03583 19.862591,93.400444 13.758153,84.639008 10.439168,74.681531 10.215543,74.010623 10.039971,73.443867 10.049007,73.42208 c 0.009,-0.02179 0.948359,0.34599 2.087383,0.81728 4.895731,2.025689 18.371227,7.599199 18.426137,7.621106 0.03304,0.01318 0.09126,0.163987 0.129394,0.335115 0.112001,0.502663 0.47605,1.600839 0.739429,2.230532 1.452003,3.471493 4.084212,6.244336 7.452523,7.850688 3.015194,1.437949 6.316315,1.82974 9.601046,1.139485 2.255216,-0.47391 4.457238,-1.512507 6.312697,-2.977418 0.716127,-0.565391 1.966349,-1.831404 2.497103,-2.528646 2.000729,-2.628311 3.065077,-5.573788 3.191146,-8.83118 l 0.03547,-0.916557 9.515249,-6.813183 9.51525,-6.813183 1.171467,-0.03334 c 2.047959,-0.05828 3.773438,-0.359206 5.736646,-1.000488 7.060267,-2.306231 12.45931,-8.411464 13.874803,-15.689607 0.30439,-1.565092 0.36137,-2.206029 0.36137,-4.064677 0,-1.859848 -0.0592,-2.528503 -0.35783,-4.039641 C 98.675942,31.295704 91.950356,24.71762 83.542793,23.281224 82.255642,23.061319 81.538128,23.004548 80.04181,23.004216 c -2.795229,-6.17e-4 -5.06757,0.426885 -7.601538,1.430106 -2.66756,1.056112 -4.929007,2.549383 -7.007736,4.627328 -2.937836,2.936725 -4.870932,6.523471 -5.687619,10.553042 -0.225958,1.114885 -0.322846,1.921312 -0.394936,3.287174 l -0.06195,1.17368 -6.645939,9.671573 -6.64594,9.671573 -0.86559,0.0027 c -2.580028,0.0081 -5.261215,0.771817 -7.533132,2.145732 l -0.53485,0.323439 -3.906797,-1.610447 C 13.834578,56.315614 7.7856375,53.819665 7.7744323,53.807136 7.7281582,53.755394 7.9635141,51.419373 8.1636515,49.943946 9.2611844,41.852859 12.206821,34.057568 16.74822,27.225865 19.026462,23.798667 21.574022,20.758628 24.560555,17.903297 31.35881,11.403697 39.773617,6.7573318 48.884081,4.4726891 58.091961,2.163617 67.908646,2.3135809 77.02193,4.9025348 c 13.245699,3.7629154 24.62891,12.4764502 31.77723,24.3246012 6.37253,10.562314 8.95334,22.898014 7.37224,35.237684 -1.25776,9.816083 -5.18514,19.103257 -11.38003,26.910552 -2.33276,2.939936 -5.454863,6.097025 -8.354315,8.447922 -5.605871,4.545286 -12.207962,8.008166 -19.03843,9.985876 -5.578562,1.61524 -10.89597,2.29033 -16.867359,2.14148 z M 43.936402,90.171859 C 40.9406,89.787252 38.171014,88.230844 36.30072,85.880875 c -0.504097,-0.633383 -1.417309,-2.103272 -1.349142,-2.171553 0.01115,-0.01116 1.552934,0.617219 3.426195,1.396401 1.873261,0.779186 3.618616,1.488542 3.878569,1.576339 0.876358,0.295996 1.596625,0.405847 2.661037,0.405847 1.470134,0 2.546688,-0.251981 3.842161,-0.899306 2.409275,-1.203873 4.081309,-3.427024 4.616595,-6.138262 0.153418,-0.777064 0.166599,-2.251516 0.02684,-3.002584 -0.345948,-1.859141 -1.159132,-3.411909 -2.458625,-4.694719 -0.660406,-0.651927 -1.298859,-1.115099 -2.090926,-1.516879 -0.321406,-0.163038 -2.146879,-0.943874 -4.056606,-1.73519 -2.084854,-0.863883 -3.445836,-1.455734 -3.406171,-1.481249 0.236061,-0.151825 1.68095,-0.511867 2.483822,-0.618934 0.685013,-0.09135 2.244172,-0.103202 2.897294,-0.02204 2.607257,0.324022 5.008842,1.500246 6.838162,3.34913 0.718366,0.726043 1.095372,1.199167 1.612225,2.02326 2.440577,3.891365 2.371032,8.894024 -0.176763,12.715175 -1.151781,1.727433 -2.644046,3.030266 -4.54189,3.96534 -1.736759,0.855705 -3.262325,1.205205 -5.204629,1.192354 -0.554525,-0.0037 -1.167636,-0.02714 -1.362468,-0.05215 z M 78.761093,57.52762 C 75.32261,57.182534 72.22954,55.635447 69.887162,53.089066 66.709597,49.63477 65.507698,44.742424 66.717919,40.188641 c 0.233298,-0.877843 0.493988,-1.572111 0.921067,-2.452995 0.68022,-1.402994 1.412749,-2.449217 2.511236,-3.586633 1.338996,-1.386446 2.841668,-2.4285 4.523466,-3.136872 4.565179,-1.922851 9.690017,-1.276408 13.679183,1.725482 0.689316,0.518719 1.924688,1.717822 2.429226,2.357911 1.486295,1.885615 2.453675,4.062764 2.86368,6.444904 0.11079,0.643721 0.126284,0.914314 0.126404,2.207571 0,1.281555 -0.01582,1.565853 -0.122061,2.178288 -0.533422,3.074813 -1.88116,5.656323 -4.050754,7.758969 -2.132362,2.066564 -4.709694,3.329504 -7.688055,3.767287 -0.69748,0.10252 -2.458509,0.144483 -3.150218,0.07507 z m 2.1527,-3.43802 c 2.46973,-0.213863 4.70644,-1.255338 6.452781,-3.004595 3.772277,-3.778574 4.085291,-9.752409 0.729117,-13.91506 -0.425352,-0.527559 -1.288563,-1.360713 -1.829648,-1.765932 -1.200629,-0.899157 -2.649031,-1.55196 -4.151501,-1.871103 -0.913306,-0.193999 -2.50371,-0.241108 -3.474714,-0.102925 -0.827781,0.117801 -1.857529,0.396345 -2.545331,0.688507 -3.410073,1.448514 -5.751682,4.475629 -6.294462,8.137166 -0.111286,0.750721 -0.111908,2.171944 -0.0013,2.931974 0.742551,5.1016 4.973784,8.829068 10.161311,8.951523 0.164859,0.0039 0.594036,-0.01841 0.953728,-0.04956 z"
       id="path827"
       inkscape:connector-curvature="0" />
  </g>
</svg>
