<?xml version="1.0" encoding="UTF-8" standalone="no"?>
<svg
   xmlns:dc="http://purl.org/dc/elements/1.1/"
   xmlns:cc="http://creativecommons.org/ns#"
   xmlns:rdf="http://www.w3.org/1999/02/22-rdf-syntax-ns#"
   xmlns:svg="http://www.w3.org/2000/svg"
   xmlns="http://www.w3.org/2000/svg"
   xmlns:sodipodi="http://sodipodi.sourceforge.net/DTD/sodipodi-0.dtd"
   xmlns:inkscape="http://www.inkscape.org/namespaces/inkscape"
   width="127.002"
   height="127.001"
   viewBox="0 0 127.002 127.001"
   version="1.1"
   id="svg23"
   sodipodi:docname="Steam.svg"
   inkscape:version="0.92.3 (2405546, 2018-03-11)">
  <metadata
     id="metadata27">
    <rdf:RDF>
      <cc:Work
         rdf:about="">
        <dc:format>image/svg+xml</dc:format>
        <dc:type
           rdf:resource="http://purl.org/dc/dcmitype/StillImage" />
        <dc:title></dc:title>
      </cc:Work>
    </rdf:RDF>
  </metadata>
  <sodipodi:namedview
     pagecolor="#ffffff"
     bordercolor="#666666"
     borderopacity="1"
     objecttolerance="10"
     gridtolerance="10"
     guidetolerance="10"
     inkscape:pageopacity="0"
     inkscape:pageshadow="2"
     inkscape:window-width="1853"
     inkscape:window-height="1025"
     id="namedview25"
     showgrid="false"
     inkscape:zoom="10.511867"
     inkscape:cx="65.265838"
     inkscape:cy="81.277681"
     inkscape:window-x="67"
     inkscape:window-y="27"
     inkscape:window-maximized="1"
     inkscape:current-layer="svg23" />
  <defs
     id="defs13">
    <filter
       id="a"
       x="0"
       y="0"
       width="127.002"
       height="127.001"
       filterUnits="userSpaceOnUse">
      <feOffset
         dy="3"
         input="SourceAlpha"
         id="feOffset2" />
      <feGaussianBlur
         stdDeviation="3"
         result="b"
         id="feGaussianBlur4" />
      <feFlood
         flood-opacity="0.161"
         id="feFlood6" />
      <feComposite
         operator="in"
         in2="b"
         id="feComposite8"
         result="result1" />
      <feComposite
         in="SourceGraphic"
         in2="result1"
         id="feComposite10" />
    </filter>
    <filter
       filterUnits="userSpaceOnUse"
       height="127.001"
       width="127.001"
       y="0"
       x="0"
       id="a-35">
      <feOffset
         id="feOffset2-6"
         input="SourceAlpha"
         dy="3" />
      <feGaussianBlur
         id="feGaussianBlur4-2"
         result="b"
         stdDeviation="3" />
      <feFlood
         id="feFlood6-9"
         flood-opacity="0.161" />
      <feComposite
         result="result1"
         id="feComposite8-1"
         in2="b"
         operator="in" />
      <feComposite
         id="feComposite10-2"
         in2="result1"
         in="SourceGraphic" />
    </filter>
    <filter
       id="a-3"
       x="0"
       y="0"
       width="127.001"
       height="127.001"
       filterUnits="userSpaceOnUse">
      <feOffset
         dy="3"
         input="SourceAlpha"
         id="feOffset827" />
      <feGaussianBlur
         stdDeviation="3"
         result="b"
         id="feGaussianBlur829" />
      <feFlood
         flood-opacity="0.161"
         id="feFlood831" />
      <feComposite
         operator="in"
         in2="b"
         id="feComposite833"
         result="result1" />
      <feComposite
         in="SourceGraphic"
         in2="result1"
         id="feComposite835" />
    </filter>
    <filter
       id="a-7"
       x="0"
       y="0"
       width="127.002"
       height="127.001"
       filterUnits="userSpaceOnUse">
      <feOffset
         dy="3"
         input="SourceAlpha"
         id="feOffset871" />
      <feGaussianBlur
         stdDeviation="3"
         result="b"
         id="feGaussianBlur873" />
      <feFlood
         flood-opacity="0.161"
         id="feFlood875" />
      <feComposite
         operator="in"
         in2="b"
         id="feComposite877"
         result="result1" />
      <feComposite
         in="SourceGraphic"
         in2="result1"
         id="feComposite879" />
    </filter>
  </defs>
  <g
     inkscape:groupmode="layer"
     id="layer1"
     inkscape:label="Layer 1"
     style="display:none">
    <g
       id="g877"
       transform="matrix(0.63817697,0,0,0.63693224,-45.574711,-48.362525)">
      <g
         id="Artwork">
	<g
   id="g844">
		<circle
   id="circle840"
   r="85.5"
   cy="170.89999"
   cx="170.89999"
   class="st0"
   style="fill:#ff4500" />

		<path
   id="path842"
   d="m 227.9,170.9 c 0,-6.9 -5.6,-12.5 -12.5,-12.5 -3.4,0 -6.4,1.3 -8.6,3.5 -8.5,-6.1 -20.3,-10.1 -33.3,-10.6 l 5.7,-26.7 18.5,3.9 c 0.2,4.7 4.1,8.5 8.9,8.5 4.9,0 8.9,-4 8.9,-8.9 0,-4.9 -4,-8.9 -8.9,-8.9 -3.5,0 -6.5,2 -7.9,5 L 178,119.8 c -0.6,-0.1 -1.2,0 -1.7,0.3 -0.5,0.3 -0.8,0.8 -1,1.4 l -6.3,29.8 c -13.3,0.4 -25.2,4.3 -33.8,10.6 -2.2,-2.1 -5.3,-3.5 -8.6,-3.5 -6.9,0 -12.5,5.6 -12.5,12.5 0,5.1 3,9.4 7.4,11.4 -0.2,1.2 -0.3,2.5 -0.3,3.8 0,19.2 22.3,34.7 49.9,34.7 27.6,0 49.9,-15.5 49.9,-34.7 0,-1.3 -0.1,-2.5 -0.3,-3.7 4.1,-2 7.2,-6.4 7.2,-11.5 z m -85.5,8.9 c 0,-4.9 4,-8.9 8.9,-8.9 4.9,0 8.9,4 8.9,8.9 0,4.9 -4,8.9 -8.9,8.9 -4.9,0 -8.9,-4 -8.9,-8.9 z m 49.7,23.5 c -6.1,6.1 -17.7,6.5 -21.1,6.5 -3.4,0 -15.1,-0.5 -21.1,-6.5 -0.9,-0.9 -0.9,-2.4 0,-3.3 0.9,-0.9 2.4,-0.9 3.3,0 3.8,3.8 12,5.2 17.9,5.2 5.9,0 14,-1.4 17.9,-5.2 0.9,-0.9 2.4,-0.9 3.3,0 0.7,1 0.7,2.4 -0.2,3.3 z m -1.6,-14.6 c -4.9,0 -8.9,-4 -8.9,-8.9 0,-4.9 4,-8.9 8.9,-8.9 4.9,0 8.9,4 8.9,8.9 0,4.9 -4,8.9 -8.9,8.9 z"
   class="st1"
   inkscape:connector-curvature="0"
   style="fill:#ffffff" />

	</g>

</g>
      <g
         class="st2"
         id="Spacing_Guide"
         style="display:none">
	<rect
   id="rect847"
   height="85.400002"
   width="85.400002"
   class="st3"
   x="0"
   y="0"
   style="display:inline;fill:none;stroke:#d8d8d8;stroke-width:0.5;stroke-miterlimit:10" />

	<rect
   id="rect849"
   height="85.400002"
   width="341.79999"
   class="st3"
   x="0"
   y="0"
   style="display:inline;fill:none;stroke:#d8d8d8;stroke-width:0.5;stroke-miterlimit:10" />

	<rect
   id="rect851"
   height="85.400002"
   width="341.79999"
   class="st3"
   y="256.29999"
   x="0"
   style="display:inline;fill:none;stroke:#d8d8d8;stroke-width:0.5;stroke-miterlimit:10" />

	<rect
   id="rect853"
   height="341.79999"
   width="85.400002"
   class="st3"
   x="0"
   y="0"
   style="display:inline;fill:none;stroke:#d8d8d8;stroke-width:0.5;stroke-miterlimit:10" />

	<rect
   id="rect855"
   height="341.79999"
   width="85.400002"
   class="st3"
   x="256.39999"
   y="0"
   style="display:inline;fill:none;stroke:#d8d8d8;stroke-width:0.5;stroke-miterlimit:10" />

</g>
    </g>
  </g>
  <style
     id="style838"
     type="text/css">
	.st0{fill:#FF4500;}
	.st1{fill:#FFFFFF;}
	.st2{display:none;}
	.st3{display:inline;fill:none;stroke:#D8D8D8;stroke-width:0.5;stroke-miterlimit:10;}
</style>
  <g
     id="g980"
     transform="matrix(1.0043728,0,0,1.0026243,-0.23575873,-0.21788194)">
    <g
       style="opacity:1"
       inkscape:label="Layer 1"
       id="layer2">
      <path
         inkscape:connector-curvature="0"
         id="path827"
         d="M 61.811679,114.93383 C 55.689177,114.7816 49.41396,113.51586 43.649831,111.27048 38.57755,109.29466 33.599202,106.4244 29.408979,103.06009 21.173165,96.447607 15.073255,87.716391 11.756733,77.793262 c -0.223459,-0.668595 -0.398904,-1.233396 -0.389872,-1.255108 0.009,-0.0217 0.947653,0.344798 2.085833,0.81446 4.892101,2.018702 18.357602,7.57299 18.412473,7.594819 0.03302,0.01312 0.09121,0.163422 0.129296,0.333959 0.111919,0.500932 0.4757,1.595318 0.738882,2.222838 1.450925,3.459518 4.081184,6.222801 7.446997,7.823609 3.012958,1.432989 6.311629,1.823428 9.593921,1.135554 2.253546,-0.472275 4.453936,-1.507288 6.308017,-2.96715 0.715598,-0.563436 1.964892,-1.825084 2.495252,-2.519923 1.999246,-2.619242 3.062803,-5.55456 3.188781,-8.800716 l 0.03544,-0.913393 9.50819,-6.789684 9.508195,-6.789683 1.170599,-0.03322 c 2.046439,-0.05808 3.770638,-0.357967 5.73239,-0.997037 7.055032,-2.298279 12.450073,-8.382449 13.864503,-15.635488 0.30419,-1.559693 0.36112,-2.198419 0.36112,-4.050657 0,-1.853433 -0.0591,-2.519783 -0.35758,-4.025705 -1.661106,-8.383642 -8.381706,-14.939036 -16.783035,-16.370476 -1.286198,-0.219147 -2.003178,-0.275723 -3.498387,-0.276055 -2.793154,-6.14e-4 -5.06381,0.425415 -7.595898,1.425174 -2.665582,1.05247 -4.925353,2.540591 -7.002538,4.611367 -2.935659,2.926596 -4.86732,6.500972 -5.683403,10.516641 -0.22579,1.111039 -0.322604,1.914688 -0.394642,3.275838 l -0.06191,1.169629 -6.641012,9.638212 -6.641009,9.638212 -0.864949,0.0029 c -2.578115,0.0079 -5.257313,0.769158 -7.527546,2.138332 l -0.534452,0.322263 -3.903902,-1.604891 C 15.149623,59.490694 9.1051677,57.003354 9.0939716,56.99087 9.0477299,56.93932 9.282912,54.611343 9.4829015,53.141007 c 1.0967205,-8.06318 4.0401735,-15.831581 8.5782035,-22.63972 2.276552,-3.415376 4.822221,-6.444929 7.806538,-9.290411 6.793213,-6.477182 15.20178,-11.107518 24.305488,-13.3842808 9.201052,-2.3011075 19.010457,-2.1516608 28.116984,0.4283628 13.235873,3.749936 24.610635,12.433415 31.753645,24.240695 6.36782,10.525882 8.94671,22.819029 7.3668,35.11614 -1.25683,9.782223 -5.18131,19.03736 -11.37161,26.817727 -2.33103,2.929794 -5.45082,6.07599 -8.34811,8.41878 -5.601715,4.52959 -12.19891,7.98056 -19.02431,9.95144 -5.574424,1.60965 -10.887889,2.28244 -16.854851,2.13409 z M 45.229123,93.230157 C 42.235544,92.846878 39.46801,91.295839 37.599104,88.953974 37.09538,88.322778 36.182845,86.857957 36.25096,86.789911 c 0.01116,-0.01113 1.551786,0.615091 3.423654,1.391584 1.871875,0.776502 3.615935,1.483409 3.875697,1.570902 0.875705,0.294978 1.595439,0.404448 2.659059,0.404448 1.469046,0 2.5448,-0.251111 3.839313,-0.896203 2.407487,-1.199722 4.078282,-3.415203 4.613175,-6.117091 0.1533,-0.774384 0.166472,-2.243747 0.02682,-2.992226 -0.345692,-1.852727 -1.158272,-3.400141 -2.456805,-4.678524 -0.659913,-0.649679 -1.297895,-1.111254 -2.089373,-1.511647 -0.321169,-0.162475 -2.145289,-0.940619 -4.053596,-1.729204 -2.083311,-0.860904 -3.443283,-1.450716 -3.403647,-1.476141 0.235886,-0.151301 1.679703,-0.510102 2.481979,-0.616799 0.684507,-0.09104 2.242509,-0.102855 2.895148,-0.02197 2.605321,0.322904 5.005125,1.49507 6.833089,3.337576 0.717833,0.72354 1.094559,1.195031 1.611032,2.016282 2.438765,3.877944 2.369274,8.863346 -0.176634,12.671317 -1.150927,1.721475 -2.642084,3.019811 -4.538523,3.951662 -1.735468,0.852752 -3.259907,1.201048 -5.200769,1.188242 -0.554114,-0.0039 -1.166768,-0.02704 -1.361456,-0.05198 z M 80.027985,60.698522 c -3.435929,-0.343896 -6.526706,-1.885651 -8.867348,-4.423246 -3.17521,-3.442381 -4.376215,-8.317849 -3.166894,-12.855927 0.233125,-0.874814 0.493624,-1.566688 0.920384,-2.444533 0.679719,-1.398155 1.411702,-2.440768 2.509376,-3.57426 1.338,-1.381666 2.839561,-2.420125 4.52011,-3.126053 4.561794,-1.916216 9.682832,-1.272007 13.669038,1.719532 0.688803,0.516927 1.923262,1.711896 2.427426,2.349775 1.485191,1.879111 2.451854,4.048749 2.861553,6.422676 0.11071,0.641499 0.126194,0.911158 0.126313,2.199953 0,1.277135 -0.01581,1.560452 -0.121973,2.170776 -0.533025,3.064207 -1.879763,5.636812 -4.04775,7.732205 -2.130782,2.059437 -4.706199,3.31802 -7.682352,3.754292 -0.696961,0.102172 -2.456684,0.143984 -3.147883,0.07481 z m 2.151106,-3.426163 c 2.467897,-0.213125 4.702949,-1.251007 6.447995,-2.994232 3.769479,-3.76554 4.08226,-9.718767 0.728577,-13.867061 -0.425036,-0.525739 -1.287607,-1.356021 -1.828292,-1.75984 -1.199738,-0.896057 -2.647068,-1.546607 -4.148424,-1.864649 -0.912626,-0.19333 -2.50185,-0.240275 -3.472133,-0.102574 -0.827171,0.117393 -1.856152,0.394977 -2.543446,0.686133 -3.407544,1.443515 -5.747415,4.460189 -6.289792,8.109097 -0.111207,0.74813 -0.111828,2.164453 -0.0013,2.92186 0.742002,5.084003 4.970096,8.798614 10.153775,8.920647 0.164738,0.0042 0.593597,-0.01834 0.953021,-0.0494 z"
         style="fill:#999999;stroke-width:0.05442988" />
    </g>
    <g
       style="display:none;opacity:0.28600003"
       inkscape:label="Layer 2"
       id="layer1-7">
      <g
         transform="translate(8.9618336,6.0376668)"
         id="g890">
        <g
           transform="translate(-9,-6)"
           id="g886"
           style="filter:url(#a-7)">
          <circle
             style="fill:#2aa3ef"
             cx="54.500999"
             cy="54.500999"
             r="54.500999"
             transform="translate(9,6)"
             id="circle884" />
        </g>
        <path
           style="fill:#ffffff"
           inkscape:connector-curvature="0"
           d="M 44.719,4.3 A 18.4,18.4 0 0 1 39.449,5.746 9.2,9.2 0 0 0 43.482,0.672 18.335,18.335 0 0 1 37.655,2.9 9.179,9.179 0 0 0 21.783,9.172 9.276,9.276 0 0 0 22.022,11.264 26.044,26.044 0 0 1 3.115,1.679 9.182,9.182 0 0 0 5.954,13.925 9.1,9.1 0 0 1 1.8,12.777 v 0.117 A 9.176,9.176 0 0 0 9.158,21.887 9.16,9.16 0 0 1 6.74,22.209 9.025,9.025 0 0 1 5.014,22.043 9.189,9.189 0 0 0 13.585,28.415 18.431,18.431 0 0 1 2.185,32.339 18.492,18.492 0 0 1 0,32.212 25.962,25.962 0 0 0 14.064,36.334 c 16.874,0 26.1,-13.977 26.1,-26.1 0,-0.4 -0.011,-0.792 -0.026,-1.186 A 18.647,18.647 0 0 0 44.719,4.3 Z"
           transform="translate(32.141,36.334)"
           id="path888" />
      </g>
    </g>
  </g>
</svg>
