<?xml version="1.0" encoding="UTF-8" standalone="no"?>
<svg
   xmlns:dc="http://purl.org/dc/elements/1.1/"
   xmlns:cc="http://creativecommons.org/ns#"
   xmlns:rdf="http://www.w3.org/1999/02/22-rdf-syntax-ns#"
   xmlns:svg="http://www.w3.org/2000/svg"
   xmlns="http://www.w3.org/2000/svg"
   xmlns:sodipodi="http://sodipodi.sourceforge.net/DTD/sodipodi-0.dtd"
   xmlns:inkscape="http://www.inkscape.org/namespaces/inkscape"
   width="127.001"
   height="127.001"
   viewBox="0 0 127.001 127.001"
   version="1.1"
   id="svg23"
   sodipodi:docname="Steam.svg"
   inkscape:version="0.92.3 (2405546, 2018-03-11)">
  <metadata
     id="metadata27">
    <rdf:RDF>
      <cc:Work
         rdf:about="">
        <dc:format>image/svg+xml</dc:format>
        <dc:type
           rdf:resource="http://purl.org/dc/dcmitype/StillImage" />
        <dc:title />
      </cc:Work>
    </rdf:RDF>
  </metadata>
  <sodipodi:namedview
     pagecolor="#ffffff"
     bordercolor="#666666"
     borderopacity="1"
     objecttolerance="10"
     gridtolerance="10"
     guidetolerance="10"
     inkscape:pageopacity="0"
     inkscape:pageshadow="2"
     inkscape:window-width="1853"
     inkscape:window-height="1025"
     id="namedview25"
     showgrid="false"
     inkscape:zoom="5.6568543"
     inkscape:cx="53.519837"
     inkscape:cy="70.920318"
     inkscape:window-x="3907"
     inkscape:window-y="1107"
     inkscape:window-maximized="1"
     inkscape:current-layer="layer2" />
  <defs
     id="defs13">
    <filter
       id="a"
       x="0"
       y="0"
       width="127.001"
       height="127.001"
       filterUnits="userSpaceOnUse">
      <feOffset
         dy="3"
         input="SourceAlpha"
         id="feOffset2" />
      <feGaussianBlur
         stdDeviation="3"
         result="b"
         id="feGaussianBlur4" />
      <feFlood
         flood-opacity="0.161"
         id="feFlood6" />
      <feComposite
         operator="in"
         in2="b"
         id="feComposite8"
         result="result1" />
      <feComposite
         in="SourceGraphic"
         in2="result1"
         id="feComposite10" />
    </filter>
    <filter
       filterUnits="userSpaceOnUse"
       height="127.001"
       width="127.001"
       y="0"
       x="0"
       id="a-3">
      <feOffset
         id="feOffset827"
         input="SourceAlpha"
         dy="3" />
      <feGaussianBlur
         id="feGaussianBlur829"
         result="b"
         stdDeviation="3" />
      <feFlood
         id="feFlood831"
         flood-opacity="0.161" />
      <feComposite
         result="result1"
         id="feComposite833"
         in2="b"
         operator="in" />
      <feComposite
         id="feComposite835"
         in2="result1"
         in="SourceGraphic" />
    </filter>
  </defs>
  <g
     inkscape:groupmode="layer"
     id="layer2"
     inkscape:label="Layer 1"
     style="opacity:1">
    <path
       style="fill:#999999;stroke-width:0.05414615"
       d="m 62.30985,114.4257 c -6.087246,-0.15153 -12.326327,-1.41137 -18.057264,-3.64626 -5.043072,-1.96662 -9.992751,-4.82347 -14.158847,-8.17207 C 21.90535,96.025732 15.840566,87.335258 12.543141,77.458434 c -0.222172,-0.665474 -0.396605,-1.22764 -0.387626,-1.249251 0.0089,-0.0216 0.942197,0.343189 2.073822,0.810659 4.86393,2.009284 18.251891,7.537651 18.306446,7.559379 0.03284,0.01307 0.09067,0.162659 0.128552,0.332401 0.111274,0.498594 0.472959,1.587874 0.734627,2.212466 1.442571,3.443375 4.057682,6.193761 7.404112,7.7871 2.995609,1.426302 6.275285,1.814919 9.538679,1.130256 2.240567,-0.470071 4.428286,-1.500256 6.271691,-2.953304 0.711475,-0.560808 1.953576,-1.816569 2.480883,-2.508163 1.987732,-2.607021 3.045166,-5.528643 3.170418,-8.759651 l 0.03524,-0.909131 9.453439,-6.758001 9.453442,-6.757999 1.163857,-0.03307 c 2.034656,-0.05781 3.748926,-0.356296 5.699382,-0.992384 7.014405,-2.287553 12.378385,-8.343333 13.784665,-15.562528 0.30243,-1.552414 0.35903,-2.18816 0.35903,-4.031755 0,-1.844784 -0.0588,-2.508023 -0.35551,-4.00692 -1.65154,-8.34452 -8.333442,-14.869324 -16.686391,-16.294084 -1.27879,-0.218124 -1.991643,-0.274436 -3.478241,-0.274765 -2.777071,-6.12e-4 -5.034652,0.423427 -7.552159,1.418523 -2.650232,1.047558 -4.89699,2.528734 -6.962215,4.589847 -2.918753,2.91294 -4.839291,6.470635 -5.650674,10.467568 -0.224491,1.105853 -0.320748,1.90575 -0.39237,3.26055 l -0.06154,1.164172 -6.602769,9.593236 -6.602768,9.593237 -0.859967,0.0028 c -2.563269,0.008 -5.227041,0.765567 -7.4842,2.128353 l -0.531381,0.320782 -3.881421,-1.597403 C 15.916495,59.241273 9.9068466,56.765541 9.8957143,56.753114 9.8497413,56.701796 10.083567,54.38469 10.282405,52.921215 11.372809,44.895662 14.299312,37.16351 18.811211,30.387142 21.074654,26.987703 23.605664,23.972287 26.572797,21.140083 33.326892,14.693127 41.687038,10.084396 50.738322,7.8182579 59.88639,5.5278884 69.639308,5.6766377 78.693395,8.2446221 91.853051,11.977059 103.16232,20.620018 110.26419,32.372202 c 6.33115,10.476763 8.89519,22.712547 7.32437,34.952272 -1.24959,9.736577 -5.15147,18.948527 -11.30611,26.692587 -2.31761,2.916124 -5.41943,6.047639 -8.300048,8.379489 -5.569457,4.50846 -12.128662,7.94332 -18.91476,9.905 -5.542324,1.60216 -10.825192,2.27178 -16.757792,2.12415 z M 45.822783,92.823295 c -2.976341,-0.381492 -5.727937,-1.925293 -7.586082,-4.256229 -0.500822,-0.628251 -1.408102,-2.086236 -1.340379,-2.153964 0.01109,-0.01107 1.542848,0.61222 3.403938,1.385091 1.861095,0.772876 3.595112,1.476485 3.853378,1.563571 0.870663,0.293601 1.586252,0.40256 2.643748,0.40256 1.460586,0 2.530147,-0.249939 3.817205,-0.892021 2.393624,-1.194123 4.054798,-3.399266 4.586608,-6.088545 0.152419,-0.770771 0.165515,-2.233279 0.02667,-2.978265 -0.343701,-1.844081 -1.151603,-3.384273 -2.442656,-4.656692 -0.656115,-0.646647 -1.290422,-1.106068 -2.077343,-1.504594 -0.319319,-0.161716 -2.132934,-0.936229 -4.030254,-1.721134 -2.071313,-0.856886 -3.423454,-1.443946 -3.384047,-1.469253 0.234528,-0.150594 1.670031,-0.507721 2.467688,-0.613921 0.680564,-0.09061 2.229594,-0.102374 2.878475,-0.02186 2.590319,0.321398 4.976304,1.488094 6.793741,3.322003 0.7137,0.720163 1.088257,1.189454 1.601754,2.006873 2.424723,3.859846 2.35563,8.821986 -0.175616,12.612187 -1.144299,1.713441 -2.62687,3.005721 -4.512387,3.933222 -1.725476,0.848773 -3.241135,1.195445 -5.170821,1.182696 -0.550923,-0.0038 -1.16005,-0.02692 -1.353617,-0.05173 z M 80.421259,60.443464 c -3.416145,-0.342292 -6.489124,-1.87685 -8.816287,-4.402605 -3.156925,-3.426317 -4.351015,-8.279035 -3.148657,-12.795936 0.231783,-0.870733 0.490781,-1.559378 0.915084,-2.433127 0.675803,-1.391628 1.403572,-2.429378 2.494925,-3.55758 1.330297,-1.375219 2.823209,-2.408831 4.494081,-3.111467 4.535526,-1.907274 9.627074,-1.266069 13.590326,1.711508 0.684838,0.514516 1.912186,1.703908 2.413447,2.338812 1.476639,1.870341 2.437736,4.029856 2.845077,6.392704 0.110071,0.638506 0.125465,0.906907 0.125584,2.189688 0,1.271175 -0.01572,1.553171 -0.121269,2.160646 -0.529956,3.049908 -1.86894,5.610509 -4.024441,7.696124 -2.118511,2.049827 -4.6791,3.302536 -7.638114,3.736772 -0.692949,0.101691 -2.442539,0.143313 -3.129756,0.07447 z m 2.138718,-3.410174 c 2.453686,-0.212132 4.675867,-1.24517 6.410865,-2.98026 3.747773,-3.747969 4.058752,-9.673417 0.724381,-13.802352 -0.42259,-0.523286 -1.280193,-1.349694 -1.817763,-1.751628 -1.192831,-0.891877 -2.631825,-1.53939 -4.124535,-1.855948 -0.907372,-0.192428 -2.487445,-0.239155 -3.452141,-0.102095 -0.822405,0.116845 -1.845464,0.393134 -2.528799,0.68293 -3.387921,1.43678 -5.714319,4.439377 -6.253573,8.071258 -0.110565,0.744639 -0.111182,2.154353 -0.0013,2.908225 0.737727,5.06028 4.941474,8.757557 10.095304,8.879021 0.163788,0.0041 0.590178,-0.01826 0.947534,-0.04917 z"
       id="path827"
       inkscape:connector-curvature="0" />
  </g>
</svg>
