<?xml version="1.0" encoding="UTF-8" standalone="no"?>
<svg
   xmlns:dc="http://purl.org/dc/elements/1.1/"
   xmlns:cc="http://creativecommons.org/ns#"
   xmlns:rdf="http://www.w3.org/1999/02/22-rdf-syntax-ns#"
   xmlns:svg="http://www.w3.org/2000/svg"
   xmlns="http://www.w3.org/2000/svg"
   xmlns:sodipodi="http://sodipodi.sourceforge.net/DTD/sodipodi-0.dtd"
   xmlns:inkscape="http://www.inkscape.org/namespaces/inkscape"
   width="127.002"
   height="127.001"
   viewBox="0 0 127.002 127.001"
   version="1.1"
   id="svg23"
   sodipodi:docname="Website.svg"
   inkscape:version="0.92.3 (2405546, 2018-03-11)">
  <metadata
     id="metadata27">
    <rdf:RDF>
      <cc:Work
         rdf:about="">
        <dc:format>image/svg+xml</dc:format>
        <dc:type
           rdf:resource="http://purl.org/dc/dcmitype/StillImage" />
        <dc:title></dc:title>
      </cc:Work>
    </rdf:RDF>
  </metadata>
  <sodipodi:namedview
     pagecolor="#ffffff"
     bordercolor="#666666"
     borderopacity="1"
     objecttolerance="10"
     gridtolerance="10"
     guidetolerance="10"
     inkscape:pageopacity="0"
     inkscape:pageshadow="2"
     inkscape:window-width="1853"
     inkscape:window-height="1025"
     id="namedview25"
     showgrid="false"
     inkscape:zoom="1.8582531"
     inkscape:cx="-144.43013"
     inkscape:cy="104.73084"
     inkscape:window-x="67"
     inkscape:window-y="27"
     inkscape:window-maximized="1"
     inkscape:current-layer="svg23" />
  <defs
     id="defs13">
    <filter
       id="a"
       x="0"
       y="0"
       width="127.002"
       height="127.001"
       filterUnits="userSpaceOnUse">
      <feOffset
         dy="3"
         input="SourceAlpha"
         id="feOffset2" />
      <feGaussianBlur
         stdDeviation="3"
         result="b"
         id="feGaussianBlur4" />
      <feFlood
         flood-opacity="0.161"
         id="feFlood6" />
      <feComposite
         operator="in"
         in2="b"
         id="feComposite8"
         result="result1" />
      <feComposite
         in="SourceGraphic"
         in2="result1"
         id="feComposite10" />
    </filter>
  </defs>
  <path
     inkscape:connector-curvature="0"
     d="m 63.694878,6.0301993 c -30.553816,0 -55.3260562,24.3973477 -55.3260562,54.4887687 0,30.091424 24.7722402,54.488772 55.3260562,54.488772 30.553815,0 55.326052,-24.397348 55.326052,-54.488772 0,-30.091421 -24.772237,-54.4887687 -55.326052,-54.4887687 z M 68.305382,78.940714 V 65.059701 h 13.803852 c -0.27202,5.190053 -0.977428,10.171237 -2.102388,14.889055 -3.794448,-0.544889 -7.717987,-0.853657 -11.701464,-1.008042 z m 9.02276,9.81706 c -2.300644,6.039173 -5.343575,11.338216 -9.02276,15.692766 V 88.013095 c 3.070598,0.127132 6.081256,0.367799 9.02276,0.744679 z M 68.305382,55.978237 V 42.287934 c 4.001918,-0.154383 7.934681,-0.467695 11.747567,-1.017122 1.097301,4.663329 1.793487,9.585484 2.056285,14.707425 z m 0,-22.767223 V 16.587399 c 3.716068,4.399966 6.782054,9.76257 9.087307,15.874393 -2.959944,0.381423 -5.993657,0.622081 -9.087307,0.749222 z M 80.767577,18.376446 c 5.703193,2.252203 10.853128,5.576017 15.16856,9.744408 -2.959944,1.062532 -6.044371,2.007004 -9.308608,2.756224 -1.586013,-4.504404 -3.573142,-8.672796 -5.859952,-12.500632 z M 47.382912,79.948756 C 46.257949,75.230938 45.547931,70.249754 45.280523,65.059701 h 13.803851 v 13.881013 c -3.988088,0.154384 -7.902405,0.463153 -11.701462,1.008042 z m 11.701462,8.064339 v 16.437445 c -3.679184,-4.35455 -6.722116,-9.653593 -9.022758,-15.692766 2.941503,-0.37688 5.952162,-0.617539 9.022758,-0.744679 z M 45.280523,55.978237 c 0.2628,-5.121941 0.954374,-10.044096 2.056285,-14.707425 3.812887,0.549427 7.745649,0.862738 11.747566,1.017122 V 55.978237 Z M 50.00168,32.461792 c 2.305251,-6.111823 5.371239,-11.474427 9.082694,-15.874393 V 33.211014 C 55.990726,33.08388 52.957013,32.843215 50.00168,32.461792 Z m -9.244061,-1.589254 c -3.26424,-0.74922 -6.348667,-1.693693 -9.304,-2.756223 4.320044,-4.168392 9.465365,-7.492209 15.168562,-9.74441 -2.286813,3.832377 -4.27394,8.000769 -5.864562,12.500633 z m -2.531168,8.709121 c -1.217173,5.226382 -2.00096,10.716125 -2.268368,16.396578 H 17.824967 c 0.760734,-7.528532 3.407163,-14.516714 7.455186,-20.515021 4.057245,1.639203 8.372677,3.04229 12.946298,4.118443 z m 0.04148,42.056249 C 33.712753,82.709521 29.415762,84.098983 25.37235,85.724564 21.269007,79.694475 18.590304,72.651803 17.824959,65.059701 h 18.137726 c 0.267409,5.744024 1.065026,11.297336 2.305251,16.578207 z m 2.54961,8.704582 c 1.576793,4.431753 3.540866,8.541118 5.795403,12.31445 -5.638646,-2.22494 -10.724032,-5.498812 -15.011803,-9.603635 2.932283,-1.039826 5.989047,-1.975217 9.2164,-2.710815 z m 45.754648,0 c 3.227352,0.740138 6.279508,1.666446 9.216399,2.710815 -4.292381,4.100278 -9.377767,7.378695 -15.016414,9.608185 2.254537,-3.777882 4.218613,-7.887247 5.800015,-12.319 z m 2.549608,-8.704582 c 1.244833,-5.280871 2.037839,-10.834183 2.30986,-16.578207 h 18.137723 c -0.76995,7.592102 -3.44865,14.634774 -7.552,20.664863 -4.043417,-1.625581 -8.345018,-3.015043 -12.895587,-4.086656 z M 91.431664,55.978237 C 91.164256,50.297784 90.37586,44.808041 89.163296,39.581659 c 4.573621,-1.076153 8.893664,-2.47924 12.950914,-4.118443 4.04341,5.998307 6.68985,12.986489 7.45057,20.515021 z"
     id="path863"
     style="fill:#666666;stroke-width:4.5754838" />
</svg>
