<?xml version="1.0" encoding="UTF-8" standalone="no"?>
<svg
   xmlns:dc="http://purl.org/dc/elements/1.1/"
   xmlns:cc="http://creativecommons.org/ns#"
   xmlns:rdf="http://www.w3.org/1999/02/22-rdf-syntax-ns#"
   xmlns:svg="http://www.w3.org/2000/svg"
   xmlns="http://www.w3.org/2000/svg"
   xmlns:sodipodi="http://sodipodi.sourceforge.net/DTD/sodipodi-0.dtd"
   xmlns:inkscape="http://www.inkscape.org/namespaces/inkscape"
   width="127.001"
   height="127.001"
   viewBox="0 0 127.001 127.001"
   version="1.1"
   id="svg959"
   sodipodi:docname="Website.svg"
   inkscape:version="0.92.3 (2405546, 2018-03-11)">
  <metadata
     id="metadata963">
    <rdf:RDF>
      <cc:Work
         rdf:about="">
        <dc:format>image/svg+xml</dc:format>
        <dc:type
           rdf:resource="http://purl.org/dc/dcmitype/StillImage" />
        <dc:title></dc:title>
      </cc:Work>
    </rdf:RDF>
  </metadata>
  <sodipodi:namedview
     pagecolor="#ffffff"
     bordercolor="#666666"
     borderopacity="1"
     objecttolerance="10"
     gridtolerance="10"
     guidetolerance="10"
     inkscape:pageopacity="0"
     inkscape:pageshadow="2"
     inkscape:window-width="1853"
     inkscape:window-height="1025"
     id="namedview961"
     showgrid="false"
     inkscape:zoom="3.7165062"
     inkscape:cx="72.535817"
     inkscape:cy="73.863934"
     inkscape:window-x="67"
     inkscape:window-y="27"
     inkscape:window-maximized="1"
     inkscape:current-layer="svg959" />
  <defs
     id="defs949">
    <filter
       id="a"
       x="0"
       y="0"
       width="127.001"
       height="127.001"
       filterUnits="userSpaceOnUse">
      <feOffset
         dy="3"
         input="SourceAlpha"
         id="feOffset938" />
      <feGaussianBlur
         stdDeviation="3"
         result="b"
         id="feGaussianBlur940" />
      <feFlood
         flood-opacity="0.161"
         id="feFlood942" />
      <feComposite
         operator="in"
         in2="b"
         id="feComposite944"
         result="result1" />
      <feComposite
         in="SourceGraphic"
         in2="result1"
         id="feComposite946" />
    </filter>
  </defs>
  <path
     inkscape:connector-curvature="0"
     d="m 63.081588,5.9518206 c -30.553816,0 -55.3260556,24.3654024 -55.3260556,54.4174214 0,30.052022 24.7722396,54.417418 55.3260556,54.417418 30.553815,0 55.326052,-24.365396 55.326052,-54.417418 0,-30.052019 -24.772237,-54.4174214 -55.326052,-54.4174214 z M 67.692092,78.766867 V 64.904029 h 13.803852 c -0.27202,5.183258 -0.977428,10.157919 -2.102388,14.86956 -3.794448,-0.544176 -7.717987,-0.85254 -11.701464,-1.006722 z m 9.02276,9.804205 c -2.300644,6.031265 -5.343575,11.323366 -9.02276,15.672218 V 87.827368 c 3.070598,0.126966 6.081256,0.367317 9.02276,0.743704 z M 67.692092,55.834457 V 42.16208 c 4.001918,-0.154181 7.934681,-0.467083 11.747567,-1.01579 1.097301,4.657223 1.793487,9.572932 2.056285,14.688167 z m 0,-22.737412 V 16.495197 c 3.716068,4.394205 6.782054,9.749787 9.087307,15.853607 -2.959944,0.380924 -5.993657,0.621267 -9.087307,0.748241 z M 80.154287,18.281902 c 5.703193,2.249254 10.853128,5.568715 15.16856,9.731648 -2.959944,1.061141 -6.044371,2.004376 -9.308608,2.752615 -1.586013,-4.498506 -3.573142,-8.661439 -5.859952,-12.484263 z M 46.769622,79.773589 c -1.124963,-4.711641 -1.834981,-9.686302 -2.102389,-14.86956 h 13.803851 v 13.862838 c -3.988088,0.154181 -7.902405,0.462546 -11.701462,1.006722 z m 11.701462,8.053779 V 104.24329 C 54.7919,99.894438 51.748968,94.602337 49.448326,88.571072 c 2.941503,-0.376387 5.952162,-0.61673 9.022758,-0.743704 z M 44.667233,55.834457 c 0.2628,-5.115235 0.954374,-10.030944 2.056285,-14.688167 3.812887,0.548707 7.745649,0.861608 11.747566,1.01579 V 55.834457 Z M 49.38839,32.348804 c 2.305251,-6.10382 5.371239,-11.459402 9.082694,-15.853607 V 33.097045 C 55.377436,32.970078 52.343723,32.729728 49.38839,32.348804 Z m -9.244061,-1.587173 c -3.26424,-0.748239 -6.348667,-1.691475 -9.304,-2.752614 4.320044,-4.162934 9.465365,-7.482398 15.168562,-9.73165 -2.286813,3.827359 -4.27394,7.990292 -5.864562,12.484264 z m -2.531168,8.697718 c -1.217173,5.219538 -2.00096,10.702093 -2.268368,16.375108 H 17.211677 c 0.760734,-7.518674 3.407163,-14.497706 7.455186,-20.488159 4.057245,1.637057 8.372677,3.038307 12.946298,4.113051 z m 0.04148,42.00118 C 33.099463,82.530739 28.802472,83.918381 24.75906,85.541834 20.655717,79.519641 17.977014,72.48619 17.211669,64.904029 h 18.137726 c 0.267409,5.736503 1.065026,11.282544 2.305251,16.5565 z m 2.54961,8.693184 c 1.576793,4.42595 3.540866,8.52993 5.795403,12.298327 -5.638646,-2.22203 -10.724032,-5.491615 -15.011803,-9.591062 2.932283,-1.038464 5.989047,-1.97263 9.2164,-2.707265 z m 45.754648,0 c 3.227352,0.739169 6.279508,1.664264 9.216399,2.707265 -4.292381,4.094912 -9.377767,7.369032 -15.016414,9.595602 2.254537,-3.772937 4.218613,-7.876917 5.800015,-12.302867 z m 2.549608,-8.693184 c 1.244833,-5.273956 2.037839,-10.819997 2.30986,-16.5565 h 18.137723 c -0.76995,7.582161 -3.44865,14.615612 -7.552,20.637805 -4.043417,-1.623453 -8.345018,-3.011095 -12.895587,-4.081305 z m 2.309867,-25.626072 c -0.267408,-5.673015 -1.055804,-11.15557 -2.268368,-16.375108 4.573621,-1.074744 8.893664,-2.475994 12.950914,-4.113051 4.04341,5.990453 6.68985,12.969485 7.45057,20.488159 z"
     id="path863"
     style="fill:#666666;stroke-width:4.57248735" />
</svg>
